<?xml version="1.0" encoding="UTF-8" standalone="no"?>
<!-- Created with Inkscape (http://www.inkscape.org/) -->

<svg
   xmlns:dc="http://purl.org/dc/elements/1.1/"
   xmlns:cc="http://creativecommons.org/ns#"
   xmlns:rdf="http://www.w3.org/1999/02/22-rdf-syntax-ns#"
   xmlns:svg="http://www.w3.org/2000/svg"
   xmlns="http://www.w3.org/2000/svg"
   xmlns:sodipodi="http://sodipodi.sourceforge.net/DTD/sodipodi-0.dtd"
   xmlns:inkscape="http://www.inkscape.org/namespaces/inkscape"
   width="34mm"
   height="34mm"
   viewBox="0 0 34 34"
   version="1.1"
   id="svg4875"
   inkscape:version="0.92.4 (unknown)"
   sodipodi:docname="daggy_logo.svg">
  <defs
     id="defs4869" />
  <sodipodi:namedview
     id="base"
     pagecolor="#ffffff"
     bordercolor="#666666"
     borderopacity="1.0"
     inkscape:pageopacity="0.0"
     inkscape:pageshadow="2"
     inkscape:zoom="1.979899"
     inkscape:cx="79.709854"
     inkscape:cy="62.383297"
     inkscape:document-units="mm"
     inkscape:current-layer="layer1"
     showgrid="false"
     inkscape:window-width="1920"
     inkscape:window-height="1017"
     inkscape:window-x="0"
     inkscape:window-y="26"
     inkscape:window-maximized="1" />
  <metadata
     id="metadata4872">
    <rdf:RDF>
      <cc:Work
         rdf:about="">
        <dc:format>image/svg+xml</dc:format>
        <dc:type
           rdf:resource="http://purl.org/dc/dcmitype/StillImage" />
        <dc:title></dc:title>
      </cc:Work>
    </rdf:RDF>
  </metadata>
  <g
     inkscape:label="Layer 1"
     inkscape:groupmode="layer"
     id="layer1"
     transform="translate(0,-263)">
    <g
       transform="matrix(0.26458333,0,0,0.26458333,-167.90027,225.44708)"
       id="g120">
      <g
         id="g114">
        <ellipse
           style="fill:#00a99d"
           id="ellipse112"
           ry="8.6999998"
           rx="9.1000004"
           cy="180.8"
           cx="700.59998"
           class="st16" />
      </g>
      <g
         id="g118">
        <path
           style="fill:#00a99d"
           inkscape:connector-curvature="0"
           id="path116"
           d="m 742.2,223.4 c -0.7,0 -1.4,0.1 -2,0.4 L 727.4,211 v -13.2 l 3.2,-3.2 v -17.1 0 c -0.2,-16.4 -13.5,-29.6 -30,-29.6 -16.4,0 -29.8,13.2 -30,29.6 v 0 16.6 l 3.2,3.2 v 13.8 L 661,223.9 c -0.6,-0.2 -1.3,-0.4 -2,-0.4 -3.4,0 -6.1,2.8 -6.1,6.1 0,3.4 2.8,6.1 6.1,6.1 3.4,0 6.1,-2.8 6.1,-6.1 0,-0.9 -0.2,-1.8 -0.5,-2.5 L 678.7,213 v -11 l 0.8,0.8 c 0.7,0.7 1.5,1.4 2.2,2 v 17.7 l -9.5,11.3 c -0.5,-0.1 -1,-0.2 -1.6,-0.2 -3.4,0 -6.1,2.8 -6.1,6.1 0,3.4 2.8,6.1 6.1,6.1 3.4,0 6.1,-2.8 6.1,-6.1 0,-1.1 -0.3,-2.1 -0.8,-3 l 10.5,-12.5 V 208 c 1.2,0.6 2.4,1.2 3.7,1.7 v 24 l -5.5,9.2 c -0.2,0 -0.4,0 -0.5,0 -3.4,0 -6.1,2.8 -6.1,6.1 0,3.4 2.8,6.1 6.1,6.1 3.4,0 6.1,-2.8 6.1,-6.1 0,-1.4 -0.5,-2.8 -1.3,-3.8 L 695,235 v -24 c 1.1,0.2 2.1,0.4 3.2,0.5 v 40.8 c -2.2,0.9 -3.7,3.1 -3.7,5.6 0,3.4 2.8,6.1 6.1,6.1 3.4,0 6.1,-2.8 6.1,-6.1 0,-2.5 -1.5,-4.7 -3.7,-5.6 v -40.7 c 1.1,-0.1 2.1,-0.2 3.2,-0.4 V 235 l 6.1,10.1 c -0.8,1 -1.3,2.4 -1.3,3.8 0,3.4 2.8,6.1 6.1,6.1 3.3,0 6.1,-2.8 6.1,-6.1 0,-3.4 -2.8,-6.1 -6.1,-6.1 -0.2,0 -0.4,0 -0.5,0 l -5.5,-9.2 v -23.8 c 1.3,-0.4 2.5,-1 3.7,-1.6 v 15.9 l 10.5,12.5 c -0.5,0.9 -0.8,1.9 -0.8,3 0,3.4 2.8,6.1 6.1,6.1 3.4,0 6.1,-2.8 6.1,-6.1 0,-3.4 -2.8,-6.1 -6.1,-6.1 -0.5,0 -1.1,0.1 -1.6,0.2 l -9.5,-11.3 v -17.2 c 1,-0.8 1.9,-1.6 2.8,-2.5 l 0.2,-0.2 v 10.4 l 14.1,14.1 c -0.3,0.8 -0.5,1.6 -0.5,2.5 0,3.4 2.8,6.1 6.1,6.1 3.4,0 6.1,-2.8 6.1,-6.1 0,-3.4 -2.7,-6.1 -6.1,-6.1 z m -83.2,7.4 c -0.7,0 -1.3,-0.6 -1.3,-1.3 0,-0.7 0.6,-1.3 1.3,-1.3 0.7,0 1.3,0.6 1.3,1.3 0,0.7 -0.5,1.3 -1.3,1.3 z m 11.6,10.2 c -0.7,0 -1.3,-0.6 -1.3,-1.3 0,-0.7 0.6,-1.3 1.3,-1.3 0.7,0 1.3,0.6 1.3,1.3 0.1,0.7 -0.5,1.3 -1.3,1.3 z m 13.5,9.3 c -0.7,0 -1.3,-0.6 -1.3,-1.3 0,-0.7 0.6,-1.3 1.3,-1.3 0.7,0 1.3,0.6 1.3,1.3 0,0.7 -0.6,1.3 -1.3,1.3 z m 33,-2.6 c 0.7,0 1.3,0.6 1.3,1.3 0,0.7 -0.6,1.3 -1.3,1.3 -0.7,0 -1.3,-0.6 -1.3,-1.3 0,-0.8 0.6,-1.3 1.3,-1.3 z m 13.5,-9.3 c 0.7,0 1.3,0.6 1.3,1.3 0,0.7 -0.6,1.3 -1.3,1.3 -0.7,0 -1.3,-0.6 -1.3,-1.3 0,-0.7 0.6,-1.3 1.3,-1.3 z m -30,-73.4 c 9,0 16.4,7.1 16.4,15.8 0,8.7 -7.4,15.8 -16.4,15.8 -9,0 -16.4,-7.1 -16.4,-15.8 0,-8.7 7.4,-15.8 16.4,-15.8 z m 0,94.3 c -0.7,0 -1.3,-0.6 -1.3,-1.3 0,-0.7 0.6,-1.3 1.3,-1.3 0.7,0 1.3,0.6 1.3,1.3 0,0.7 -0.6,1.3 -1.3,1.3 z m 10.8,-58.4 c -1.6,1 -3.3,1.8 -5.1,2.3 -1.8,0.5 -3.7,0.8 -5.6,0.8 -1.9,0 -3.8,-0.3 -5.6,-0.8 -1.8,-0.5 -3.6,-1.3 -5.1,-2.3 -3.2,-2 -5.7,-5 -7.1,-8.4 2,3 4.7,5.4 7.8,7.1 1.5,0.8 3.2,1.5 4.9,1.9 1.7,0.4 3.4,0.6 5.1,0.6 1.7,0 3.5,-0.2 5.1,-0.6 1.7,-0.4 3.3,-1.1 4.8,-1.9 3.1,-1.6 5.8,-4.1 7.8,-7.1 -1.3,3.5 -3.9,6.4 -7,8.4 z m 30.8,29.9 c -0.7,0 -1.3,-0.6 -1.3,-1.3 0,-0.7 0.6,-1.3 1.3,-1.3 0.7,0 1.3,0.6 1.3,1.3 0,0.7 -0.6,1.3 -1.3,1.3 z"
           class="st16" />
      </g>
    </g>
  </g>
</svg>
