<?xml version="1.0" encoding="UTF-8" standalone="no"?>
<!-- Created with Inkscape (http://www.inkscape.org/) -->

<svg
   xmlns:dc="http://purl.org/dc/elements/1.1/"
   xmlns:cc="http://creativecommons.org/ns#"
   xmlns:rdf="http://www.w3.org/1999/02/22-rdf-syntax-ns#"
   xmlns:svg="http://www.w3.org/2000/svg"
   xmlns="http://www.w3.org/2000/svg"
   xmlns:sodipodi="http://sodipodi.sourceforge.net/DTD/sodipodi-0.dtd"
   xmlns:inkscape="http://www.inkscape.org/namespaces/inkscape"
   width="210mm"
   height="210mm"
   viewBox="0 0 210 210"
   version="1.1"
   id="svg4506"
   sodipodi:docname="dataagregator_logo.svg"
   inkscape:version="0.92.3 (2405546, 2018-03-11)">
  <defs
     id="defs4500" />
  <sodipodi:namedview
     id="base"
     pagecolor="#ffffff"
     bordercolor="#666666"
     borderopacity="1.0"
     inkscape:pageopacity="0.0"
     inkscape:pageshadow="2"
     inkscape:zoom="0.69999999"
     inkscape:cx="331.53024"
     inkscape:cy="436.92695"
     inkscape:document-units="mm"
     inkscape:current-layer="layer1"
     inkscape:document-rotation="0"
     showgrid="false"
     inkscape:window-width="1920"
     inkscape:window-height="1013"
     inkscape:window-x="0"
     inkscape:window-y="30"
     inkscape:window-maximized="1" />
  <metadata
     id="metadata4503">
    <rdf:RDF>
      <cc:Work
         rdf:about="">
        <dc:format>image/svg+xml</dc:format>
        <dc:type
           rdf:resource="http://purl.org/dc/dcmitype/StillImage" />
        <dc:title></dc:title>
      </cc:Work>
    </rdf:RDF>
  </metadata>
  <g
     inkscape:label="Layer 1"
     inkscape:groupmode="layer"
     id="layer1"
     transform="translate(0,-87)">
    <g
       id="g843"
       transform="matrix(1.0500398,0,0,1,2.6513477,30.616072)">
      <path
         inkscape:connector-curvature="0"
         d="m 15.014724,115.38729 c 5.476669,1.87309 11.374191,2.05618 17.103165,2.40197 6.305968,0.3979 12.594416,1.01105 18.900476,1.40019 8.699408,0.45169 17.412586,0.48952 26.121378,0.53392 5.823088,0.11182 11.657629,-0.1529 17.478005,0.12484 3.413008,0.16286 6.665582,0.51421 10.068742,0.83739 10.78092,0.99604 21.57874,1.80351 32.37288,2.6426 8.23819,0.65435 16.49179,0.90099 24.7515,0.73575 6.25448,-0.44416 12.4651,-1.30307 18.62931,-2.43316 5.02064,-0.81542 9.85406,-2.44209 14.79453,-3.61318 0,0 -8.79366,6.70538 -8.79366,6.70538 v 0 c -4.88443,1.14465 -9.69605,2.61402 -14.65312,3.43282 -6.15943,1.09062 -12.36671,1.89515 -18.61874,2.21083 -8.23222,0.13593 -16.44205,-0.25909 -24.64813,-0.93926 -10.77973,-0.89907 -21.56225,-1.76509 -32.340582,-2.67661 -4.180407,-0.34845 -5.993503,-0.55035 -10.132717,-0.70256 -5.82333,-0.21414 -11.654752,0.0114 -17.479581,-0.10481 -8.751747,-0.0567 -17.506569,-0.13139 -26.251445,-0.5075 -6.306192,-0.33287 -12.594814,-0.87792 -18.886107,-1.41784 -5.914499,-0.38583 -11.898731,-0.66683 -17.6404986,-2.25639 0,0 9.2245946,-6.37438 9.2245946,-6.37438 z"
         id="path4508"
         style="fill:#ff0000;fill-opacity:1;stroke:#080000;stroke-width:7" />
      <path
         d="m 334.67578,483.02148 -38.1289,18.4043 c -1.33834,14.80056 -4.8957,29.26445 -8.03516,43.75977 -3.30967,18.56209 -5.08767,37.35375 -8.59375,55.87695 -3.88136,21.69143 -10.23839,42.75359 -16.48828,63.83984 -4.76037,17.81511 -10.32042,35.35784 -15.875,52.93555 -5.06596,15.35856 -9.83577,31.8416 -21.5,43.72266 -0.86479,0.88085 -1.78782,1.70018 -2.72657,2.50195 -1.08496,0.4375 -2.18647,0.87267 -3.29882,1.28906 -11.12548,4.16466 -22.30378,6.43209 -33.97266,8.38867 -22.17528,2.88771 -44.57894,2.8348 -66.89844,2.80079 -16.54192,0.1138 -28.153094,-5.87487 -42.560544,-12.71094 -19.33638,-9.13331 -24.441407,-21.53039 -29.378906,-41.29297 -2.443835,-12.9854 -3.705918,-26.23743 -3.818359,-39.45508 -0.02661,-3.12737 -0.207827,-6.28051 0.203125,-9.38086 0.432933,-3.26623 1.541552,-6.40603 2.3125,-9.60937 4.543209,-12.58066 12.253893,-23.60291 22.21289,-32.32813 2.753256,-1.21721 5.527685,-2.40501 7.826172,-3.22656 6.21953,-2.22308 12.339041,-3.5727 18.857422,-4.45117 11.56188,-0.58739 22.66785,3.04773 31.53906,10.58203 -10.07061,5.43388 -19.11477,13.02361 -26.24804,21.57422 -6.710223,12.18406 -7.144062,24.49084 -4.611332,38.02929 3.141384,13.61413 6.174582,24.39113 20.917972,28.64454 20.86506,-2.91005 6.57856,-0.22062 46.71484,-24.15625 8.28621,-4.94155 12.67517,-14.68035 16.13281,-23.15821 0.52871,-2.78317 1.30346,-5.53076 1.58594,-8.34961 1.69107,-16.87544 -3.72299,-33.59658 -12.875,-47.59765 -2.09003,-2.25933 -4.00986,-4.6898 -6.27148,-6.77735 -9.23119,-8.52064 -20.74,-13.47024 -33.28516,-13.72461 -29.609054,2.05939 -55.280151,21.40724 -80.093751,35.15039 -2.912636,1.82442 -5.950755,3.46425 -8.738281,5.47461 -14.548456,10.49246 -25.469793,24.99928 -30.6874999,42.18555 -0.6876162,3.4704 -1.690877,6.89405 -2.0644531,10.41211 -0.3367332,3.1711 -0.1249169,6.37819 -0.058594,9.56641 0.279975,13.45882 1.605972,26.95603 4.324219,40.14257 5.314021,20.89115 10.671548,34.39101 30.841797,44.66993 6.840699,3.19638 13.521102,7.26221 20.617187,9.86328 7.408997,2.71578 15.397701,3.57523 23.197266,4.20312 22.55888,-0.0913 45.1813,-0.30899 67.64258,-2.56836 9.74551,-1.3946 13.73545,-1.67135 23.24414,-4.19336 28.94512,-7.67709 55.37353,-23.37959 79.29492,-41.07617 2.66501,-2.56456 5.5504,-4.91888 7.99609,-7.69336 11.16637,-12.66758 15.51814,-29.48219 20.93555,-45.02539 5.68964,-17.52385 10.99109,-35.12088 15.6543,-52.94922 6.12406,-21.26003 12.41085,-42.48627 16.42578,-64.27929 3.29757,-18.57918 5.2723,-37.36827 8.9082,-55.89454 3.09378,-14.67964 6.34482,-29.32444 8.82422,-44.11914 z M 86.675781,619.53516 c -3.982639,2.24628 -6.662029,3.76393 -9.75,5.50976 0.250339,-0.16591 0.493737,-0.34054 0.746094,-0.5039 2.88294,-1.86634 6.002251,-3.3372 9.003906,-5.00586 z m 48.144529,25.08398 c 7.3212,12.31448 11.47659,26.82227 9.1836,41.20313 -0.42209,2.64721 -1.39494,5.17717 -2.0918,7.76562 -0.1874,0.36134 -0.39212,0.73153 -0.58203,1.0957 -5.60195,-4.34637 -7.52266,-12.88895 -9.10352,-20.16211 -1.54898,-9.87608 -2.14315,-20.74389 2.59375,-29.90234 z m -5.67969,66.61524 c -2.03873,1.43042 -6.51847,3.84133 -4.86718,2.86132 1.69722,-1.00728 3.2964,-1.94514 4.86718,-2.86132 z"
         style="fill:#ff0000;fill-opacity:1;stroke:#080000;stroke-width:26.45669365"
         transform="scale(0.26458333)"
         id="path4514"
         inkscape:connector-curvature="0" />
      <path
         inkscape:connector-curvature="0"
         d="m 111.88316,129.73521 c -2.3458,10.6978 -3.92049,21.54975 -5.22448,32.41787 -0.22625,2.37621 -0.48121,4.74985 -0.67874,7.12862 -0.19335,2.32838 -0.3012,4.66332 -0.49382,6.99175 -0.77848,9.41077 -1.88562,18.79497 -3.19088,28.14538 -0.9813,7.194 -2.60362,14.26891 -3.992495,21.38729 -0.397049,2.50327 -0.957834,4.97023 -1.633495,7.41083 -1.185754,5.28082 -2.594456,10.50933 -3.735964,15.80078 -0.938742,4.69413 -0.499073,2.408 -1.324398,6.85734 0,0 -9.691579,4.70785 -9.691579,4.70785 v 0 c 0.89649,-4.48355 0.43557,-2.18384 1.383101,-6.89905 1.012439,-5.24954 2.370667,-10.42194 3.347572,-15.67895 0.604031,-2.46412 1.281393,-4.90968 1.747726,-7.40791 1.635676,-7.21253 3.60316,-14.35161 4.733171,-21.67377 1.057611,-6.94694 1.939817,-13.88997 2.629832,-20.88438 1.02712,-10.41155 0.329969,-3.98816 1.162425,-14.24643 0.193292,-2.3819 0.429088,-4.76016 0.643631,-7.14024 1.257342,-10.71853 2.801983,-21.39575 4.298403,-32.08288 0,0 10.01999,-4.8341 10.01999,-4.8341 z"
         id="path4516"
         style="fill:#ff0000;fill-opacity:1;stroke:#080000;stroke-width:7" />
      <path
         inkscape:connector-curvature="0"
         d="m 137.49158,131.49143 c -0.36623,2.91293 -0.45813,5.85072 -0.52093,8.78301 -0.0445,2.78834 -0.0599,5.57702 -0.0519,8.36569 0.003,2.51307 0.004,5.02607 0.007,7.53911 -0.0192,2.42598 0.0204,4.85196 0.006,7.27787 -0.0293,2.94218 -0.0138,5.88452 -0.0356,8.82671 -0.0228,3.97501 0.019,7.94615 -0.22262,11.91499 -0.2578,3.45231 -0.40482,6.9095 -0.47566,10.3702 -0.24402,3.49977 0.0329,6.58819 0.77169,10.00747 0.53428,2.27549 1.21887,4.61718 2.52482,6.59027 0.82905,1.25256 1.41183,1.72161 2.47591,2.77979 3.27547,2.97601 7.28378,4.8595 11.22371,6.7701 3.11707,1.50377 6.36327,2.72916 9.76503,3.38601 1.68541,0.28724 3.39868,0.24453 5.10121,0.24793 2.64358,0.1839 5.21835,-0.25276 7.82252,-0.61508 1.05738,-0.21182 2.36267,-0.42856 3.38454,-0.8058 3.29803,-1.21755 13.89998,-7.56233 -3.61942,2.32222 3.03182,-2.03019 4.5905,-4.41799 6.03465,-7.70214 1.51171,-3.75258 1.84723,-7.78069 2.06527,-11.77693 0.19563,-4.14422 0.19291,-8.30777 -0.69145,-12.37384 -1.28462,-4.12989 -4.11443,-7.37535 -7.37105,-10.10032 -3.20934,-2.4544 -6.55066,-4.72831 -10.23096,-6.41031 -3.42584,-1.31096 -6.5953,-1.20143 -10.05046,-0.14554 15.12035,-8.50689 8.26378,-5.6513 6.06535,-2.15269 -0.95925,1.52657 -1.43711,3.23639 -1.95646,4.94231 -0.80437,2.60746 -1.66254,5.20935 -1.84101,7.94496 0.13465,3.03105 0.78169,4.55792 3.16997,6.42118 2.36076,1.84919 5.19941,2.8186 8.08567,3.48356 0.39708,0.0416 0.79415,0.0831 1.19122,0.12465 0,0 -9.10037,6.4095 -9.10037,6.4095 v 0 c -0.41002,-0.078 -0.82004,-0.15598 -1.23007,-0.23398 -2.9865,-0.82178 -5.91167,-1.93328 -8.36026,-3.88554 -2.56782,-2.1937 -3.3947,-3.92896 -3.68247,-7.30559 0.0225,-2.85802 0.89219,-5.54283 1.79999,-8.23542 2.67085,-9.33312 4.07906,-8.58239 14.6352,-14.24041 3.54893,-0.78389 7.12986,-0.72134 10.50445,0.78077 3.65996,1.85852 7.06008,4.16714 10.27961,6.71045 3.39521,2.91224 6.38934,6.35066 7.78705,10.68223 0.93922,4.14248 0.97572,8.41356 0.80882,12.64563 -0.18529,4.09329 -0.46119,8.22507 -1.88453,12.10946 -1.3397,3.41791 -2.68507,6.03454 -5.71717,8.25817 -3.47045,2.05751 -10.36786,6.90696 -15.46499,8.44416 -1.02374,0.30875 -2.40325,0.52093 -3.44616,0.7063 -2.66679,0.40813 -5.32473,0.6781 -8.0281,0.56582 -1.75176,0.002 -3.50841,-0.0364 -5.21904,-0.46412 -3.38411,-0.85651 -6.60581,-2.20421 -9.75346,-3.7029 -4.04144,-1.95625 -8.1089,-4.01832 -11.46116,-7.05796 -1.10839,-1.12722 -1.78394,-1.70589 -2.66372,-3.03013 -1.36485,-2.05437 -2.08099,-4.5078 -2.67513,-6.86978 -0.75589,-3.50762 -1.22231,-6.61552 -0.91963,-10.22313 0.085,-3.48257 0.20401,-6.96606 0.50795,-10.43757 0.26369,-3.94136 0.29322,-7.87883 0.20791,-11.82869 -0.0219,-2.93006 -0.006,-5.86027 -0.0357,-8.79032 -0.015,-2.42731 0.0243,-4.85469 0.003,-7.28207 0.002,-2.51528 -0.002,-5.03054 0.002,-7.54585 0.014,-2.80361 0.005,-5.60789 0.0832,-8.41068 0.0806,-2.93016 0.14637,-5.86197 0.34979,-8.78688 0,0 10.04527,-4.99685 10.04527,-4.99685 z"
         id="path4555"
         style="fill:#ff0000;fill-opacity:1;stroke:#080000;stroke-width:7" />
      <path
         inkscape:connector-curvature="0"
         d="m 86.595706,105.92282 c -1.205625,-2.0502 -2.917434,-3.71654 -4.051721,-5.81118 -0.817168,-1.715436 -1.313117,-3.515992 -1.597829,-5.386786 -0.266801,-2.527827 1.64039,-4.228023 3.559294,-5.501418 5.471792,-3.378385 10.100889,-7.066724 16.43661,-6.841384 2.90005,0.226645 4.86171,2.203326 6.76854,4.184666 2.01883,2.200778 3.51152,4.721997 4.29418,7.601087 0.2796,1.912194 0.40014,4.650166 -1.55792,5.831803 -3.51282,2.119892 -7.12247,4.075032 -10.68371,6.112552 -2.938981,0.7694 -5.98593,0.90999 -9.007385,1.00692 -1.953429,0.0693 -3.949769,-0.0714 -5.650259,-1.09928 -1.142309,-0.92276 -1.511519,-2.33127 -1.736066,-3.71779 -0.172477,-1.36679 -0.15167,-2.747992 -0.155464,-4.122928 0,0 10.003316,-5.094211 10.003316,-5.094211 v 0 c -0.0094,1.326549 -0.02543,2.656062 0.08265,3.979421 0.124093,1.035219 0.265401,2.192152 1.205945,2.815063 1.624914,0.755615 3.465877,0.710285 5.222631,0.673445 2.945512,-0.10803 5.962722,-0.25039 8.725432,-1.375302 -2.78293,1.660022 -5.56587,3.320042 -8.3488,4.980072 0.54834,-0.34879 1.24963,-0.71323 1.64448,-1.26655 0.72104,-1.01043 0.59595,-2.28507 0.50316,-3.441708 -0.65541,-2.736236 -2.12999,-5.025297 -4.017199,-7.096308 -1.774124,-1.815054 -3.595195,-3.460159 -6.294678,-3.420961 -5.63449,0.297785 -11.356771,4.574084 2.94927,-3.699034 -1.368515,0.68852 -3.52416,1.926894 -4.008651,3.522858 -0.0728,0.239816 -0.02231,0.500748 -0.03347,0.75112 0.216985,1.755961 0.652984,3.436316 1.381623,5.056013 1.093425,2.086645 2.76361,3.758809 4.056647,5.71744 0,0 -9.690626,5.64238 -9.690626,5.64238 z"
         id="path4565"
         style="fill:#ff0000;fill-opacity:1;stroke:#080000;stroke-width:7" />
      <path
         inkscape:connector-curvature="0"
         d="m 39.682935,106.9568 c 0.438235,-3.67377 2.337364,-6.94305 4.118965,-10.113187 1.733375,-3.190446 3.363878,-6.434812 5.208606,-9.563594 1.731579,-3.250338 4.234053,-5.827702 7.050132,-8.146587 5.826863,-4.057124 11.835702,-8.164465 18.414894,-10.861979 3.054988,-1.126588 5.986285,-2.540281 9.012582,-3.751297 1.77769,-0.449308 3.314676,-1.512583 5.036859,-2.093521 0.656521,-0.221462 2.204945,-0.569053 2.8282,-0.716479 4.646835,-0.796401 9.370137,-0.913264 14.071447,-1.057058 2.96502,0.04038 5.9493,-0.235503 8.91348,-0.0922 0.87755,0.04243 3.85075,0.390183 4.73986,0.490056 4.37249,0.425585 8.09164,2.621737 11.79236,4.790313 4.00123,2.399315 7.62545,5.315164 11.04462,8.472228 3.55086,3.146795 6.71577,6.640592 9.51368,10.464913 1.8744,2.6884 3.13677,5.634326 3.72091,8.847267 0.20095,2.070579 0.38792,4.141476 0.61393,6.210136 0,0 -9.8645,5.157289 -9.8645,5.157289 v 0 c -0.20788,-2.05105 -0.45692,-4.09497 -0.57588,-6.153411 -0.46756,-3.070039 -1.56566,-5.908973 -3.3533,-8.471881 -2.69741,-3.796816 -5.84854,-7.210007 -9.32322,-10.313731 -3.4191,-3.058924 -7.02252,-5.917104 -10.99324,-8.237712 -3.58887,-2.11818 -7.26159,-4.053086 -11.49596,-4.429911 -4.50886,-0.468521 -9.02343,-0.419504 -13.551747,-0.285734 -4.697466,0.136343 -9.439021,0.298032 -14.039041,1.341295 -2.676948,0.758931 -5.166404,1.949725 -7.771606,2.917118 -3.013998,1.220193 -5.940443,2.636954 -8.986829,3.777605 -4.313079,2.043628 -2.028008,1.013029 6.604426,-4.014166 0.490982,-0.285927 -0.984229,0.568103 -1.470562,0.86187 -1.223061,0.738783 -1.842146,1.148918 -3.039288,1.950116 -0.548364,0.366996 -1.092726,0.73994 -1.639088,1.109909 -2.840575,2.164091 -5.41102,4.58628 -7.139982,7.760041 -1.935856,3.09231 -3.560985,6.354173 -5.281777,9.568156 -1.755068,2.969398 -3.75553,6.115164 -4.099269,9.616246 0,0 -10.059662,4.96789 -10.059662,4.96789 z"
         id="path4567"
         style="fill:#ff0000;fill-opacity:1;stroke:#080000;stroke-width:7" />
    </g>
  </g>
</svg>
