<?xml version="1.0" encoding="UTF-8" standalone="no"?>
<svg
   xmlns:dc="http://purl.org/dc/elements/1.1/"
   xmlns:cc="http://creativecommons.org/ns#"
   xmlns:rdf="http://www.w3.org/1999/02/22-rdf-syntax-ns#"
   xmlns:svg="http://www.w3.org/2000/svg"
   xmlns="http://www.w3.org/2000/svg"
   id="svg1971"
   version="1.1"
   viewBox="0 0 21 21"
   height="21mm"
   width="21mm">
  <defs
     id="defs1965" />
  <metadata
     id="metadata1968">
    <rdf:RDF>
      <cc:Work
         rdf:about="">
        <dc:format>image/svg+xml</dc:format>
        <dc:type
           rdf:resource="http://purl.org/dc/dcmitype/StillImage" />
        <dc:title></dc:title>
      </cc:Work>
    </rdf:RDF>
  </metadata>
  <g
     transform="translate(0,-276)"
     id="layer1">
    <g
       id="g1283"
       transform="matrix(0.26458333,0,0,0.26458333,-136.12927,181.95407)">
      <g
         id="g1277">
        <ellipse
           class="st17"
           cx="555.90002"
           cy="378.70001"
           rx="5.9000001"
           ry="5.6999998"
           id="ellipse1275"
           style="fill:#007068" />
      </g>
      <g
         id="g1281">
        <path
           class="st17"
           d="m 583.2,406.6 c -0.5,0 -0.9,0.1 -1.3,0.2 l -8.4,-8.4 v -8.7 l 2.1,-2.1 v -11.2 0 c -0.1,-10.7 -8.9,-19.4 -19.7,-19.4 -10.8,0 -19.5,8.7 -19.7,19.4 v 0 10.9 l 2.1,2.1 v 9.1 l -8.4,8.4 c -0.4,-0.1 -0.9,-0.2 -1.3,-0.2 -2.2,0 -4,1.8 -4,4 0,2.2 1.8,4 4,4 2.2,0 4,-1.8 4,-4 0,-0.6 -0.1,-1.1 -0.4,-1.7 l 9.2,-9.2 v -7.2 l 0.5,0.5 c 0.5,0.5 1,0.9 1.5,1.3 V 406 l -6.2,7.4 c -0.3,-0.1 -0.7,-0.1 -1,-0.1 -2.2,0 -4,1.8 -4,4 0,2.2 1.8,4 4,4 2.2,0 4,-1.8 4,-4 0,-0.7 -0.2,-1.4 -0.5,-1.9 l 6.9,-8.2 v -10.6 c 0.8,0.4 1.6,0.8 2.4,1.1 v 15.8 l -3.6,6 c -0.1,0 -0.2,0 -0.4,0 -2.2,0 -4,1.8 -4,4 0,2.2 1.8,4 4,4 2.2,0 4,-1.8 4,-4 0,-0.9 -0.3,-1.8 -0.9,-2.5 l 4,-6.6 v -15.7 c 0.7,0.1 1.4,0.2 2.1,0.3 v 26.8 c -1.4,0.6 -2.4,2 -2.4,3.7 0,2.2 1.8,4 4,4 2.2,0 4,-1.8 4,-4 0,-1.7 -1,-3.1 -2.4,-3.7 v -26.7 c 0.7,0 1.4,-0.1 2.1,-0.3 v 15.7 l 4,6.6 c -0.6,0.7 -0.9,1.6 -0.9,2.5 0,2.2 1.8,4 4,4 2.2,0 4,-1.8 4,-4 0,-2.2 -1.8,-4 -4,-4 -0.1,0 -0.2,0 -0.4,0 l -3.6,-6 V 398 c 0.8,-0.3 1.6,-0.6 2.4,-1 v 10.4 l 6.9,8.2 c -0.3,0.6 -0.5,1.2 -0.5,1.9 0,2.2 1.8,4 4,4 2.2,0 4,-1.8 4,-4 0,-2.2 -1.8,-4 -4,-4 -0.4,0 -0.7,0.1 -1,0.1 l -6.2,-7.4 v -11.3 c 0.6,-0.5 1.3,-1 1.8,-1.6 l 0.2,-0.2 v 6.8 l 9.2,9.2 c -0.2,0.5 -0.4,1.1 -0.4,1.7 0,2.2 1.8,4 4,4 2.2,0 4,-1.8 4,-4 0.2,-2.4 -1.6,-4.2 -3.8,-4.2 z m -54.6,4.9 c -0.5,0 -0.9,-0.4 -0.9,-0.9 0,-0.5 0.4,-0.9 0.9,-0.9 0.5,0 0.9,0.4 0.9,0.9 0,0.5 -0.4,0.9 -0.9,0.9 z m 7.6,6.7 c -0.5,0 -0.9,-0.4 -0.9,-0.9 0,-0.5 0.4,-0.9 0.9,-0.9 0.5,0 0.9,0.4 0.9,0.9 0,0.5 -0.4,0.9 -0.9,0.9 z m 8.9,6.1 c -0.5,0 -0.9,-0.4 -0.9,-0.9 0,-0.5 0.4,-0.9 0.9,-0.9 0.5,0 0.9,0.4 0.9,0.9 -0.1,0.5 -0.5,0.9 -0.9,0.9 z m 21.6,-1.7 c 0.5,0 0.9,0.4 0.9,0.9 0,0.5 -0.4,0.9 -0.9,0.9 -0.5,0 -0.9,-0.4 -0.9,-0.9 0.1,-0.6 0.4,-0.9 0.9,-0.9 z m 8.9,-6.1 c 0.5,0 0.9,0.4 0.9,0.9 0,0.5 -0.4,0.9 -0.9,0.9 -0.5,0 -0.9,-0.4 -0.9,-0.9 0,-0.5 0.4,-0.9 0.9,-0.9 z m -19.7,-48.2 c 5.9,0 10.8,4.6 10.8,10.4 0,5.7 -4.8,10.4 -10.8,10.4 -6,0 -10.8,-4.6 -10.8,-10.4 0,-5.7 4.9,-10.4 10.8,-10.4 z m 0,61.9 c -0.5,0 -0.9,-0.4 -0.9,-0.9 0,-0.5 0.4,-0.9 0.9,-0.9 0.5,0 0.9,0.4 0.9,0.9 0,0.5 -0.4,0.9 -0.9,0.9 z m 7,-38.3 c -1,0.7 -2.2,1.2 -3.4,1.5 -1.2,0.3 -2.4,0.5 -3.7,0.5 -1.2,0 -2.5,-0.2 -3.7,-0.5 -1.2,-0.4 -2.3,-0.9 -3.4,-1.5 -2.1,-1.3 -3.8,-3.3 -4.6,-5.5 1.3,2 3.1,3.6 5.1,4.6 1,0.5 2.1,1 3.2,1.2 1.1,0.3 2.2,0.4 3.4,0.4 1.1,0 2.3,-0.1 3.4,-0.4 1.1,-0.3 2.2,-0.7 3.2,-1.2 2,-1.1 3.8,-2.7 5.1,-4.6 -0.8,2.3 -2.5,4.2 -4.6,5.5 z m 20.3,19.6 c -0.5,0 -0.9,-0.4 -0.9,-0.9 0,-0.5 0.4,-0.9 0.9,-0.9 0.5,0 0.9,0.4 0.9,0.9 -0.1,0.5 -0.4,0.9 -0.9,0.9 z"
           id="path1279"
           style="fill:#007068" />
      </g>
    </g>
  </g>
</svg>
