<?xml version="1.0" encoding="UTF-8" standalone="no"?><svg xmlns="http://www.w3.org/2000/svg" xmlns:xlink="http://www.w3.org/1999/xlink" contentScriptType="application/ecmascript" contentStyleType="text/css" height="558px" preserveAspectRatio="none" style="width:264px;height:558px;background:#FFFFFF;" version="1.1" viewBox="0 0 264 558" width="264px" zoomAndPan="magnify"><defs><filter height="300%" id="frw45ccb46xc8" width="300%" x="-1" y="-1"><feGaussianBlur result="blurOut" stdDeviation="2.0"/><feColorMatrix in="blurOut" result="blurOut2" type="matrix" values="0 0 0 0 0 0 0 0 0 0 0 0 0 0 0 0 0 0 .4 0"/><feOffset dx="4.0" dy="4.0" in="blurOut2" result="blurOut3"/><feBlend in="SourceGraphic" in2="blurOut3" mode="normal"/></filter></defs><g><ellipse cx="165" cy="16" fill="#000000" filter="url(#frw45ccb46xc8)" rx="10" ry="10" style="stroke:none;stroke-width:1.0;"/><g id="NotStarted"><rect fill="#FEFECE" filter="url(#frw45ccb46xc8)" height="50.2656" rx="12.5" ry="12.5" style="stroke:#A80036;stroke-width:1.5;" width="171" x="79.5" y="86"/><line style="stroke:#A80036;stroke-width:1.5;" x1="79.5" x2="250.5" y1="112.2969" y2="112.2969"/><text fill="#000000" font-family="sans-serif" font-size="14" lengthAdjust="spacing" textLength="81" x="124.5" y="103.9951">NotStarted</text><text fill="#000000" font-family="sans-serif" font-size="12" lengthAdjust="spacing" textLength="151" x="84.5" y="128.4355">Providers are not started</text></g><g id="Started"><rect fill="#FEFECE" filter="url(#frw45ccb46xc8)" height="50.2656" rx="12.5" ry="12.5" style="stroke:#A80036;stroke-width:1.5;" width="170" x="10" y="196"/><line style="stroke:#A80036;stroke-width:1.5;" x1="10" x2="180" y1="222.2969" y2="222.2969"/><text fill="#000000" font-family="sans-serif" font-size="14" lengthAdjust="spacing" textLength="55" x="67.5" y="213.9951">Started</text><text fill="#000000" font-family="sans-serif" font-size="12" lengthAdjust="spacing" textLength="150" x="15" y="238.4355">All providers are starting</text></g><g id="Finished"><rect fill="#FEFECE" filter="url(#frw45ccb46xc8)" height="50.2656" rx="12.5" ry="12.5" style="stroke:#A80036;stroke-width:1.5;" width="172" x="78" y="416"/><line style="stroke:#A80036;stroke-width:1.5;" x1="78" x2="250" y1="442.2969" y2="442.2969"/><text fill="#000000" font-family="sans-serif" font-size="14" lengthAdjust="spacing" textLength="59" x="134.5" y="433.9951">Finished</text><text fill="#000000" font-family="sans-serif" font-size="12" lengthAdjust="spacing" textLength="152" x="83" y="458.4355">All providers are finished</text></g><g id="Finishing"><rect fill="#FEFECE" filter="url(#frw45ccb46xc8)" height="50.2656" rx="12.5" ry="12.5" style="stroke:#A80036;stroke-width:1.5;" width="174" x="7" y="306"/><line style="stroke:#A80036;stroke-width:1.5;" x1="7" x2="181" y1="332.2969" y2="332.2969"/><text fill="#000000" font-family="sans-serif" font-size="14" lengthAdjust="spacing" textLength="63" x="62.5" y="323.9951">Finishing</text><text fill="#000000" font-family="sans-serif" font-size="12" lengthAdjust="spacing" textLength="154" x="12" y="348.4355">All providers are finishing</text></g><ellipse cx="164" cy="536" filter="url(#frw45ccb46xc8)" rx="10" ry="10" style="stroke:#000000;stroke-width:1.0;fill:none;"/><ellipse cx="164.5" cy="536.5" fill="#000000" rx="6" ry="6" style="stroke:none;stroke-width:1.0;"/><!--MD5=[b32535b763b71dad07721ccd6a357690]
link *start to NotStarted--><path d="M165,26.257 C165,38.856 165,61.981 165,80.743 " fill="none" id="*start-to-NotStarted" style="stroke:#A80036;stroke-width:1.0;"/><polygon fill="#A80036" points="165,85.907,169,76.907,165,80.907,161,76.907,165,85.907" style="stroke:#A80036;stroke-width:1.0;"/><!--MD5=[3ef9ddcbe909101e84124fddcb6b6087]
link NotStarted to Started--><path d="M149.291,136.237 C138.663,152.634 124.584,174.356 113.427,191.57 " fill="none" id="NotStarted-to-Started" style="stroke:#A80036;stroke-width:1.0;"/><polygon fill="#A80036" points="110.657,195.844,118.9092,190.468,113.3769,191.6485,112.1964,186.1162,110.657,195.844" style="stroke:#A80036;stroke-width:1.0;"/><!--MD5=[07293abf967c6e30e42072500041b062]
link NotStarted to Finished--><path d="M177.279,136.279 C184.88,152.682 193.94,175.081 198,196 C211.55,265.81 212.946,286.268 199,356 C195.181,375.094 186.927,395.273 179.393,411.066 " fill="none" id="NotStarted-to-Finished" style="stroke:#A80036;stroke-width:1.0;"/><polygon fill="#A80036" points="177.084,415.821,184.615,409.474,179.2691,411.3237,177.4193,405.9779,177.084,415.821" style="stroke:#A80036;stroke-width:1.0;"/><!--MD5=[9c521909281792cca813b774050f5fb3]
link Started to Finishing--><path d="M94.7756,246.237 C94.6263,262.357 94.4294,283.621 94.2714,300.691 " fill="none" id="Started-to-Finishing" style="stroke:#A80036;stroke-width:1.0;"/><polygon fill="#A80036" points="94.2237,305.844,98.3058,296.8809,94.2694,300.8442,90.3062,296.8078,94.2237,305.844" style="stroke:#A80036;stroke-width:1.0;"/><!--MD5=[af5e2fa93b7617e01d72477e0f236a6e]
link Finishing to Finished--><path d="M109.709,356.237 C120.337,372.634 134.416,394.356 145.573,411.57 " fill="none" id="Finishing-to-Finished" style="stroke:#A80036;stroke-width:1.0;"/><polygon fill="#A80036" points="148.343,415.844,146.8036,406.1162,145.6231,411.6485,140.0908,410.468,148.343,415.844" style="stroke:#A80036;stroke-width:1.0;"/><!--MD5=[f3edc34042f787149cb4b2f443172939]
link Finished to *end--><path d="M164,466.4347 C164,483.5384 164,505.827 164,520.2736 " fill="none" id="Finished-to-*end" style="stroke:#A80036;stroke-width:1.0;"/><polygon fill="#A80036" points="164,525.5817,168,516.5817,164,520.5817,160,516.5817,164,525.5817" style="stroke:#A80036;stroke-width:1.0;"/><!--MD5=[7637df61564f4eeccb380e0cdce8b219]
@startuml
[*] - -> NotStarted
NotStarted : Providers are not started
NotStarted - -> Started
Started : All providers are starting
NotStarted - -> Finished
Started - -> Finishing
Finishing : All providers are finishing
Finishing - -> Finished
Finished : All providers are finished
Finished - -> [*]
@enduml

PlantUML version 1.2021.17beta4(Unknown compile time)
(GPL source distribution)
Java Runtime: Java(TM) SE Runtime Environment
JVM: Java HotSpot(TM) 64-Bit Server VM
Default Encoding: UTF-8
Language: en
Country: US
--></g></svg>