<?xml version="1.0" encoding="UTF-8" standalone="no"?><svg xmlns="http://www.w3.org/2000/svg" xmlns:xlink="http://www.w3.org/1999/xlink" contentScriptType="application/ecmascript" contentStyleType="text/css" height="682px" preserveAspectRatio="none" style="width:472px;height:682px;background:#FFFFFF;" version="1.1" viewBox="0 0 472 682" width="472px" zoomAndPan="magnify"><defs><filter height="300%" id="f1nsr4ptpon79j" width="300%" x="-1" y="-1"><feGaussianBlur result="blurOut" stdDeviation="2.0"/><feColorMatrix in="blurOut" result="blurOut2" type="matrix" values="0 0 0 0 0 0 0 0 0 0 0 0 0 0 0 0 0 0 .4 0"/><feOffset dx="4.0" dy="4.0" in="blurOut2" result="blurOut3"/><feBlend in="SourceGraphic" in2="blurOut3" mode="normal"/></filter></defs><g><ellipse cx="218.5" cy="16" fill="#000000" filter="url(#f1nsr4ptpon79j)" rx="10" ry="10" style="stroke:none;stroke-width:1.0;"/><g id="NotStarted"><rect fill="#FEFECE" filter="url(#f1nsr4ptpon79j)" height="50.2656" rx="12.5" ry="12.5" style="stroke:#A80036;stroke-width:1.5;" width="181" x="128" y="86"/><line style="stroke:#A80036;stroke-width:1.5;" x1="128" x2="309" y1="112.2969" y2="112.2969"/><text fill="#000000" font-family="sans-serif" font-size="14" lengthAdjust="spacing" textLength="81" x="178" y="103.9951">NotStarted</text><text fill="#000000" font-family="sans-serif" font-size="12" lengthAdjust="spacing" textLength="161" x="133" y="128.4355">Commands are not started</text></g><g id="Starting"><rect fill="#FEFECE" filter="url(#f1nsr4ptpon79j)" height="50.2656" rx="12.5" ry="12.5" style="stroke:#A80036;stroke-width:1.5;" width="209" x="114" y="196"/><line style="stroke:#A80036;stroke-width:1.5;" x1="114" x2="323" y1="222.2969" y2="222.2969"/><text fill="#000000" font-family="sans-serif" font-size="14" lengthAdjust="spacing" textLength="59" x="189" y="213.9951">Starting</text><text fill="#000000" font-family="sans-serif" font-size="12" lengthAdjust="spacing" textLength="189" x="119" y="238.4355">Provider connecting to sources</text></g><g id="Started"><rect fill="#FEFECE" filter="url(#f1nsr4ptpon79j)" height="50.2656" rx="12.5" ry="12.5" style="stroke:#A80036;stroke-width:1.5;" width="177" x="34" y="306"/><line style="stroke:#A80036;stroke-width:1.5;" x1="34" x2="211" y1="332.2969" y2="332.2969"/><text fill="#000000" font-family="sans-serif" font-size="14" lengthAdjust="spacing" textLength="55" x="95" y="323.9951">Started</text><text fill="#000000" font-family="sans-serif" font-size="12" lengthAdjust="spacing" textLength="157" x="39" y="348.4355">All commands are starting</text></g><g id="FailedToStart"><rect fill="#FEFECE" filter="url(#f1nsr4ptpon79j)" height="50.2656" rx="12.5" ry="12.5" style="stroke:#A80036;stroke-width:1.5;" width="235" x="223" y="416"/><line style="stroke:#A80036;stroke-width:1.5;" x1="223" x2="458" y1="442.2969" y2="442.2969"/><text fill="#000000" font-family="sans-serif" font-size="14" lengthAdjust="spacing" textLength="97" x="292" y="433.9951">FailedToStart</text><text fill="#000000" font-family="sans-serif" font-size="12" lengthAdjust="spacing" textLength="215" x="228" y="458.4355">Provider cannot connect to sources</text></g><g id="Finishing"><rect fill="#FEFECE" filter="url(#f1nsr4ptpon79j)" height="50.2656" rx="12.5" ry="12.5" style="stroke:#A80036;stroke-width:1.5;" width="181" x="7" y="416"/><line style="stroke:#A80036;stroke-width:1.5;" x1="7" x2="188" y1="442.2969" y2="442.2969"/><text fill="#000000" font-family="sans-serif" font-size="14" lengthAdjust="spacing" textLength="63" x="66" y="433.9951">Finishing</text><text fill="#000000" font-family="sans-serif" font-size="12" lengthAdjust="spacing" textLength="161" x="12" y="458.4355">All commands are finishing</text></g><g id="Finished"><rect fill="#FEFECE" filter="url(#f1nsr4ptpon79j)" height="64.2344" rx="12.5" ry="12.5" style="stroke:#A80036;stroke-width:1.5;" width="228" x="21.5" y="526"/><line style="stroke:#A80036;stroke-width:1.5;" x1="21.5" x2="249.5" y1="552.2969" y2="552.2969"/><text fill="#000000" font-family="sans-serif" font-size="14" lengthAdjust="spacing" textLength="59" x="106" y="543.9951">Finished</text><text fill="#000000" font-family="sans-serif" font-size="12" lengthAdjust="spacing" textLength="162" x="26.5" y="568.4355">All commands are finished.</text><text fill="#000000" font-family="sans-serif" font-size="12" lengthAdjust="spacing" textLength="208" x="26.5" y="582.4043">Provider disconnect from sources.</text></g><ellipse cx="228.5" cy="660" filter="url(#f1nsr4ptpon79j)" rx="10" ry="10" style="stroke:#000000;stroke-width:1.0;fill:none;"/><ellipse cx="229" cy="660.5" fill="#000000" rx="6" ry="6" style="stroke:none;stroke-width:1.0;"/><!--MD5=[b32535b763b71dad07721ccd6a357690]
link *start to NotStarted--><path d="M218.5,26.257 C218.5,38.856 218.5,61.981 218.5,80.743 " fill="none" id="*start-to-NotStarted" style="stroke:#A80036;stroke-width:1.0;"/><polygon fill="#A80036" points="218.5,85.907,222.5,76.907,218.5,80.907,214.5,76.907,218.5,85.907" style="stroke:#A80036;stroke-width:1.0;"/><!--MD5=[5e9332ca1729b60225f424feb848cbbe]
link NotStarted to Starting--><path d="M218.5,136.237 C218.5,152.357 218.5,173.621 218.5,190.691 " fill="none" id="NotStarted-to-Starting" style="stroke:#A80036;stroke-width:1.0;"/><polygon fill="#A80036" points="218.5,195.844,222.5,186.844,218.5,190.844,214.5,186.844,218.5,195.844" style="stroke:#A80036;stroke-width:1.0;"/><!--MD5=[c9191da6ee973ed364cc8a5c36b0c497]
link Starting to Started--><path d="M196.956,246.237 C182.257,262.773 162.745,284.725 147.383,302.007 " fill="none" id="Starting-to-Started" style="stroke:#A80036;stroke-width:1.0;"/><polygon fill="#A80036" points="143.972,305.844,152.9406,301.7741,147.2936,302.1067,146.961,296.4596,143.972,305.844" style="stroke:#A80036;stroke-width:1.0;"/><!--MD5=[57bf5961dcc8dc3c5b2a34a5912014fd]
link Starting to FailedToStart--><path d="M232.022,246.163 C254.649,286.594 300.083,367.779 324.351,411.143 " fill="none" id="Starting-to-FailedToStart" style="stroke:#A80036;stroke-width:1.0;"/><polygon fill="#A80036" points="326.917,415.729,326.0126,405.9218,324.4753,411.3657,319.0314,409.8284,326.917,415.729" style="stroke:#A80036;stroke-width:1.0;"/><!--MD5=[9c521909281792cca813b774050f5fb3]
link Started to Finishing--><path d="M116.89,356.237 C113.158,372.357 108.236,393.621 104.2845,410.691 " fill="none" id="Started-to-Finishing" style="stroke:#A80036;stroke-width:1.0;"/><polygon fill="#A80036" points="103.0918,415.844,109.0178,407.9774,104.219,410.9727,101.2237,406.1739,103.0918,415.844" style="stroke:#A80036;stroke-width:1.0;"/><!--MD5=[af5e2fa93b7617e01d72477e0f236a6e]
link Finishing to Finished--><path d="M105.466,466.108 C110.718,482.001 117.691,503.104 123.596,520.974 " fill="none" id="Finishing-to-Finished" style="stroke:#A80036;stroke-width:1.0;"/><polygon fill="#A80036" points="125.231,525.922,126.2036,516.1213,123.6614,521.1747,118.608,518.6326,125.231,525.922" style="stroke:#A80036;stroke-width:1.0;"/><!--MD5=[f3edc34042f787149cb4b2f443172939]
link Finished to *end--><path d="M164.416,590.0925 C182.778,609.837 205.431,634.1947 218.296,648.0274 " fill="none" id="Finished-to-*end" style="stroke:#A80036;stroke-width:1.0;"/><polygon fill="#A80036" points="221.958,651.9657,218.7561,642.6518,218.5522,648.305,212.899,648.1011,221.958,651.9657" style="stroke:#A80036;stroke-width:1.0;"/><!--MD5=[b3541e35cdd80a74c3e310736d22058b]
link FailedToStart to *end--><path d="M328.744,466.247 C314.387,495.685 289.204,546.762 266.5,590 C256.081,609.8418 243.43,632.5552 235.674,646.333 " fill="none" id="FailedToStart-to-*end" style="stroke:#A80036;stroke-width:1.0;"/><polygon fill="#A80036" points="233.051,650.9829,240.957,645.1096,235.5077,646.6281,233.9893,641.1788,233.051,650.9829" style="stroke:#A80036;stroke-width:1.0;"/><!--MD5=[3110d41a70c9c290af69cd6a9bfeebaa]
@startuml
[*] - -> NotStarted
NotStarted : Commands are not started
NotStarted - -> Starting
Starting : Provider connecting to sources
Starting - -> Started
Started : All commands are starting
Starting - -> FailedToStart
FailedToStart : Provider cannot connect to sources
Started - -> Finishing
Finishing : All commands are finishing
Finishing - -> Finished
Finished : All commands are finished. 
Finished: Provider disconnect from sources.
Finished - -> [*]
FailedToStart - -> [*]
@enduml

PlantUML version 1.2021.17beta4(Unknown compile time)
(GPL source distribution)
Java Runtime: Java(TM) SE Runtime Environment
JVM: Java HotSpot(TM) 64-Bit Server VM
Default Encoding: UTF-8
Language: en
Country: US
--></g></svg>